<?xml version="1.0" encoding="UTF-8" standalone="no"?>
<!-- Created with Inkscape (http://www.inkscape.org/) -->

<svg
   xmlns:dc="http://purl.org/dc/elements/1.1/"
   xmlns:cc="http://creativecommons.org/ns#"
   xmlns:rdf="http://www.w3.org/1999/02/22-rdf-syntax-ns#"
   xmlns:svg="http://www.w3.org/2000/svg"
   xmlns="http://www.w3.org/2000/svg"
   xmlns:sodipodi="http://sodipodi.sourceforge.net/DTD/sodipodi-0.dtd"
   xmlns:inkscape="http://www.inkscape.org/namespaces/inkscape"
   width="683"
   height="630.16998"
   id="svg3737"
   version="1.1"
   inkscape:version="0.48.4 r9939"
   sodipodi:docname="MMMo.svg">
  <defs
     id="defs3739">
    <inkscape:perspective
       id="perspective31"
       inkscape:persp3d-origin="125 : 18 : 1"
       inkscape:vp_z="250 : 27 : 1"
       inkscape:vp_y="0 : 1000 : 0"
       inkscape:vp_x="0 : 27 : 1"
       sodipodi:type="inkscape:persp3d" />
  </defs>
  <sodipodi:namedview
     id="base"
     pagecolor="#ffffff"
     bordercolor="#666666"
     borderopacity="1.0"
     inkscape:pageopacity="0.0"
     inkscape:pageshadow="2"
     inkscape:zoom="256"
     inkscape:cx="684.1345"
     inkscape:cy="0.44795156"
     inkscape:document-units="px"
     inkscape:current-layer="layer1"
     showgrid="false"
     inkscape:window-width="1280"
     inkscape:window-height="750"
     inkscape:window-x="-8"
     inkscape:window-y="-8"
     inkscape:window-maximized="1" />
  <metadata
     id="metadata3742">
    <rdf:RDF>
      <cc:Work
         rdf:about="">
        <dc:format>image/svg+xml</dc:format>
        <dc:type
           rdf:resource="http://purl.org/dc/dcmitype/StillImage" />
        <dc:title />
      </cc:Work>
    </rdf:RDF>
  </metadata>
  <g
     inkscape:label="Layer 1"
     inkscape:groupmode="layer"
     id="layer1"
     transform="translate(0,-422.1918)">
    <path
       style="fill:#000000;fill-opacity:1"
       d="M 192.30133,422.40952 0,1052.3622 l 36.102555,0 c 0,0 23.989775,-109.92861 63.363652,-175.35527 21.431653,-35.5308 54.569373,-64.16528 98.729423,-63.36366 31.0983,0.61301 58.45371,17.04041 92.09834,64.10045 20.22922,28.17472 51.57507,100.203 51.57507,100.203 0,0 30.53834,-71.93396 50.83828,-100.203 33.55032,-47.06004 60.90575,-63.48744 92.09835,-64.10045 44.1129,-0.80162 77.39208,27.76213 98.72942,63.36366 39.39746,65.33236 63.36365,175.35527 63.36365,175.35527 l 36.10256,0 -192.30134,-629.95268 -148.09413,491.43675 -0.73679,1.47358 -1.47357,-1.47358 -148.09414,-491.43675 z"
       id="path5"
       inkscape:connector-curvature="0" />
  </g>
</svg>
