<?xml version="1.0" encoding="UTF-8" standalone="no"?>
<!-- Created with Inkscape (http://www.inkscape.org/) -->

<svg
   xmlns:dc="http://purl.org/dc/elements/1.1/"
   xmlns:cc="http://creativecommons.org/ns#"
   xmlns:rdf="http://www.w3.org/1999/02/22-rdf-syntax-ns#"
   xmlns:svg="http://www.w3.org/2000/svg"
   xmlns="http://www.w3.org/2000/svg"
   xmlns:sodipodi="http://sodipodi.sourceforge.net/DTD/sodipodi-0.dtd"
   xmlns:inkscape="http://www.inkscape.org/namespaces/inkscape"
   width="382.85715"
   height="402.85715"
   id="svg2"
   version="1.1"
   inkscape:version="0.48.4 r9939"
   sodipodi:docname="movation_.svg"
   style="enable-background:new">
  <defs
     id="defs4" />
  <sodipodi:namedview
     id="base"
     pagecolor="#ffffff"
     bordercolor="#666666"
     borderopacity="1.0"
     inkscape:pageopacity="0.0"
     inkscape:pageshadow="2"
     inkscape:zoom="1.4"
     inkscape:cx="185.35684"
     inkscape:cy="167.4241"
     inkscape:document-units="px"
     inkscape:current-layer="layer1"
     showgrid="false"
     inkscape:window-width="1920"
     inkscape:window-height="1028"
     inkscape:window-x="-8"
     inkscape:window-y="-8"
     inkscape:window-maximized="1"
     fit-margin-top="0"
     fit-margin-left="0"
     fit-margin-right="0"
     fit-margin-bottom="0" />
  <metadata
     id="metadata7">
    <rdf:RDF>
      <cc:Work
         rdf:about="">
        <dc:format>image/svg+xml</dc:format>
        <dc:type
           rdf:resource="http://purl.org/dc/dcmitype/StillImage" />
        <dc:title></dc:title>
      </cc:Work>
    </rdf:RDF>
  </metadata>
  <g
     inkscape:label="Layer 1"
     inkscape:groupmode="layer"
     id="layer1"
     style="display:inline"
     transform="translate(-151.42857,-335.93362)">
    <rect
       style="fill:#ffffff;fill-opacity:1;stroke:none"
       id="rect4407"
       width="382.85715"
       height="402.85715"
       x="151.42857"
       y="335.93362" />
    <rect
       style="fill:#93bfbe;fill-opacity:1;stroke:none"
       id="rect4405"
       width="280.71429"
       height="280.71429"
       x="210.71428"
       y="385.21933" />
    <g
       id="g2999"
       transform="translate(-32.90474,2.40432)">
      <g
         style="display:inline"
         inkscape:label="Layer"
         id="layer2">
        <g
           id="g3975">
          <path
             inkscape:connector-curvature="0"
             id="path3764"
             d="m 194.95944,570.51942 134.76871,-131.31983 66.01705,126.74351 128.52397,-51.99222 15.15229,187.88837 -109.09648,-38.3858 -5.05076,-95.96449 -102.02541,41.41626 -51.75762,-94.9596 -60.36931,66.67532 z"
             style="fill:#00807e;fill-opacity:1;stroke:none;display:inline;filter:url(#filter3936)" />
          <path
             style="fill:#00807e;fill-opacity:1;stroke:none;display:inline;filter:url(#filter3936)"
             d="m 447.24504,474.55493 c -6.7062,20.38135 22.62552,12.41439 36.01004,19.23292 -9.53907,16.0061 -13.47582,16.60921 -31.96943,42.89146 17.19871,-12.82836 57.34965,-41.20774 51.01271,-50.00256 -18.15426,-14.99791 -46.62721,-23.62001 -55.05332,-12.12182 z"
             id="path3781"
             inkscape:connector-curvature="0"
             sodipodi:nodetypes="ccccc" />
          <path
             style="fill:#00807e;fill-opacity:1;stroke:none;display:inline;filter:url(#filter3936)"
             d="m 464.41764,439.19958 c -0.006,-12.5382 -25.91937,-11.68965 -37.12311,-6.06091 -14.23091,7.14958 -21.28254,41.51915 -21.97082,42.42641 -0.10444,0.13766 14.92596,-25.47884 26.01143,-32.07234 10.26464,-6.10529 33.08843,7.64993 33.0825,-4.29316 z"
             id="path3783"
             inkscape:connector-curvature="0"
             sodipodi:nodetypes="sssss" />
          <path
             style="fill:#00807e;fill-opacity:1;stroke:none;display:inline;filter:url(#filter3936)"
             d="m 498.25774,465.7161 c 11.11168,-2.27285 15.15229,-40.65865 15.15229,-40.65865 -12.87944,9.34391 -9.95531,25.78688 -21.97082,28.03173 -7.85056,1.46671 -11.50637,-10.96976 -19.44543,-10.10152 -23.11406,6.25716 10.58837,27.30267 26.26396,22.72844 z"
             id="path3785"
             inkscape:connector-curvature="0"
             sodipodi:nodetypes="ccscc" />
          <path
             sodipodi:type="arc"
             style="fill:#00807e;fill-opacity:1;stroke:none;display:inline;filter:url(#filter3936)"
             id="path3787"
             sodipodi:cx="475.78186"
             sodipodi:cy="420.00668"
             sodipodi:rx="17.930208"
             sodipodi:ry="17.172594"
             d="m 493.71207,420.00668 c 0,9.48417 -8.02763,17.1726 -17.93021,17.1726 -9.90258,0 -17.93021,-7.68843 -17.93021,-17.1726 0,-9.48416 8.02763,-17.17259 17.93021,-17.17259 8.61393,0 16.0106,5.86661 17.61604,13.97201"
             sodipodi:start="0"
             sodipodi:end="6.0957119"
             sodipodi:open="true" />
          <path
             style="fill:#00807e;fill-opacity:1;stroke:none"
             d="m 399.82143,563.43361 52.22579,-64.52556 c 3.59867,-4.41941 3.43465,-10.17858 -0.92163,-11.06246 -3.72494,-0.63135 -9.15718,-2.46225 -12.09428,1.89404 z"
             id="path3771"
             inkscape:connector-curvature="0"
             sodipodi:nodetypes="ccccc" />
        </g>
      </g>
    </g>
  </g>
</svg>
